<svg
  xmlns="http://www.w3.org/2000/svg"
  xmlns:xlink="http://www.w3.org/1999/xlink"
  width="350px" height="350px">
  <rect x="716" y="0" width="350" height="350" fill="white" fill-opacity="0.0" />
  <path fill-rule="evenodd" fill="rgb(4, 7, 5)"
    d="M174.815,0.369 C271.363,0.369 349.631,78.637 349.631,175.185 C349.631,271.732 271.363,350.000 174.815,350.000 C78.268,350.000 -0.000,271.732 -0.000,175.185 C-0.000,78.637 78.268,0.369 174.815,0.369 Z" />
  <path fill-rule="evenodd" fill="rgb(251, 254, 252)"
    d="M204.572,243.109 L265.142,243.109 C280.831,243.109 292.920,239.510 301.408,232.307 C309.895,225.106 314.139,215.076 314.139,202.215 C314.139,195.529 312.336,189.483 308.738,184.082 C305.136,178.681 300.699,174.759 295.428,172.315 C299.542,170.259 303.240,167.010 306.519,162.574 C309.799,158.137 311.438,152.706 311.438,146.274 C311.438,134.058 307.484,124.639 299.575,118.014 C291.666,111.392 279.610,108.079 263.406,108.079 L204.572,108.079 C203.285,108.079 202.161,108.532 201.196,109.430 C200.232,110.331 199.749,111.488 199.749,112.902 L199.749,238.287 C199.749,239.574 200.232,240.698 201.196,241.663 C202.161,242.627 203.285,243.109 204.572,243.109 L204.572,243.109 ZM234.471,161.706 L234.471,133.156 L259.548,133.156 C264.690,133.156 268.615,134.443 271.315,137.014 C274.016,139.588 275.366,142.994 275.366,147.238 C275.366,151.611 274.016,155.117 271.315,157.751 C268.615,160.388 264.690,161.706 259.548,161.706 L234.471,161.706 ZM234.471,218.032 L234.471,186.204 L261.284,186.204 C266.556,186.204 270.670,187.717 273.630,190.737 C276.587,193.760 278.067,197.585 278.067,202.215 C278.067,206.588 276.587,210.316 273.630,213.403 C270.670,216.489 266.556,218.032 261.284,218.032 L234.471,218.032 Z" />
  <path fill-rule="evenodd" fill="rgb(0, 187, 48)"
    d="M44.612,243.109 L67.760,243.109 C69.174,243.109 70.331,242.627 71.232,241.663 C72.131,240.698 72.583,239.574 72.583,238.287 L72.583,165.949 L94.380,206.265 C95.152,207.682 96.050,208.773 97.081,209.545 C98.109,210.316 99.459,210.702 101.132,210.702 L111.163,210.702 C113.990,210.702 116.241,209.225 117.914,206.265 L139.519,165.949 L139.519,238.287 C139.519,239.703 140.001,240.861 140.966,241.759 C141.930,242.660 143.118,243.109 144.534,243.109 L167.489,243.109 C168.903,243.109 170.093,242.660 171.058,241.759 C172.022,240.861 172.505,239.703 172.505,238.287 L172.505,112.902 C172.505,111.488 172.022,110.331 171.058,109.430 C170.093,108.532 168.903,108.079 167.489,108.079 L146.849,108.079 C143.763,108.079 141.511,109.496 140.098,112.323 L106.147,173.087 L72.197,112.323 C70.780,109.496 68.532,108.079 65.445,108.079 L44.612,108.079 C43.325,108.079 42.201,108.532 41.236,109.430 C40.272,110.331 39.790,111.488 39.790,112.902 L39.790,238.287 C39.790,239.574 40.272,240.698 41.236,241.663 C42.201,242.627 43.325,243.109 44.612,243.109 L44.612,243.109 Z" />
</svg>